<?xml version="1.0" encoding="UTF-8"?>
<svg id="Layer_1" data-name="Layer 1" xmlns="http://www.w3.org/2000/svg" xmlns:xlink="http://www.w3.org/1999/xlink" version="1.1" viewBox="0 0 1000 1000">
  <defs>
    <style>
      .cls-1, .cls-2, .cls-3, .cls-4 {
        fill: #7622d7;
      }

      .cls-1, .cls-5 {
        font-family: Montserrat-Medium, Montserrat;
        font-size: 48.9px;
        font-weight: 500;
        letter-spacing: 0em;
      }

      .cls-6 {
        filter: url(#drop-shadow-2);
      }

      .cls-6, .cls-7, .cls-8, .cls-2, .cls-9, .cls-10, .cls-11, .cls-12, .cls-13, .cls-14, .cls-15 {
        stroke-width: 0px;
      }

      .cls-6, .cls-10 {
        fill: #d3d3d3;
      }

      .cls-7 {
        fill: #b89dff;
      }

      .cls-16 {
        font-size: 253px;
      }

      .cls-16, .cls-3, .cls-4 {
        font-family: ArialRoundedMTBold, 'Arial Rounded MT Bold';
      }

      .cls-16, .cls-3, .cls-4, .cls-17 {
        isolation: isolate;
      }

      .cls-16, .cls-5, .cls-15 {
        fill: #fff;
      }

      .cls-18 {
        clip-path: url(#clippath);
      }

      .cls-8 {
        fill: none;
      }

      .cls-3 {
        font-size: 250px;
      }

      .cls-4 {
        font-size: 288.6px;
      }

      .cls-19 {
        clip-path: url(#clippath-1);
      }

      .cls-20 {
        clip-path: url(#clippath-2);
      }

      .cls-9 {
        fill: #000;
      }

      .cls-11, .cls-12, .cls-13 {
        fill: #8756dc;
      }

      .cls-12 {
        filter: url(#drop-shadow-1);
      }

      .cls-13 {
        filter: url(#drop-shadow-3);
      }

      .cls-14 {
        fill: #7c37dd;
      }
    </style>
    <clipPath id="clippath">
      <path class="cls-8" d="M1509.9,265.6s-5.5,28.5-16.3,46.1-21.6,30.6-21.6,30.6l41.9,105.4s23.2-17.6,30.6-24.5,18.6-20.2,18.6-20.2c0,0-24.8-34.5-35.3-65.9-3.7-11.2-10.7-32.8-13.4-45.9-3-14.4-4.4-19.8-4.6-25.6Z"/>
    </clipPath>
    <filter id="drop-shadow-1" filterUnits="userSpaceOnUse">
      <feOffset dx="-3" dy="33"/>
      <feGaussianBlur result="blur" stdDeviation="10"/>
      <feFlood flood-color="#000" flood-opacity=".4"/>
      <feComposite in2="blur" operator="in"/>
      <feComposite in="SourceGraphic"/>
    </filter>
    <clipPath id="clippath-1">
      <path class="cls-8" d="M423.2,316.5c-8,5.1,53.5,104.9,53.5,104.9,0,0,21.7-17.1,22.8-24.6s-18.4-25.5-32.2-60.4c-9-22.9-18.6-61.8-21.3-93.2"/>
    </clipPath>
    <filter id="drop-shadow-2" filterUnits="userSpaceOnUse">
      <feOffset dx="-3" dy="33"/>
      <feGaussianBlur result="blur-2" stdDeviation="10"/>
      <feFlood flood-color="#000" flood-opacity=".4"/>
      <feComposite in2="blur-2" operator="in"/>
      <feComposite in="SourceGraphic"/>
    </filter>
    <clipPath id="clippath-2">
      <path class="cls-8" d="M1193.2,1132.6s-3.5,18.4-10.5,29.7c-6.9,11.3-13.9,19.8-13.9,19.8l27.1,68s15-11.4,19.7-15.8,12-13,12-13c0,0-16-22.2-22.8-42.5-2.4-7.2-6.9-21.2-8.7-29.6s-2.8-12.8-3-16.5Z"/>
    </clipPath>
    <filter id="drop-shadow-3" filterUnits="userSpaceOnUse">
      <feOffset dx="-3" dy="33"/>
      <feGaussianBlur result="blur-3" stdDeviation="10"/>
      <feFlood flood-color="#000" flood-opacity=".4"/>
      <feComposite in2="blur-3" operator="in"/>
      <feComposite in="SourceGraphic"/>
    </filter>
  </defs>
  <rect class="cls-9" x=".5" y="-.2" width="999.1" height="1000.5"/>
  <circle class="cls-15" cx="306.1" cy="232.7" r="77.7"/>
  <circle class="cls-15" cx="692.9" cy="233.7" r="77.7"/>
  <path class="cls-15" d="M506.3,160.4l-5.2-.5c-28.4-2.6-49.5,25-49.3,47.9s-2.6,38.6-6.8,55.5c-4.2,16.9-14,46.6-36.9,71.9-24.6,27.1-53.2,44.4-96.1,43-10.9-.6-26-.8-38.8,1.2-23.2,3.7-45,23.1-45,51.7v5.2c0,28.5,22.3,48.4,46.1,51,47.3,5,98.1-6.3,120.1-15.4,16.8-6.9,35.2-15.8,60.9-33.6,13.7-9.5,26.1-21.9,34.6-30.7,1.3-.9,11.9-13.9,11.9-14.3,7.5-10.8,18.4-27.6,24.9-42.3,8.5-18.9,14.7-68,18-86.9,3.2-18.9-2.4-29-4.2-48.1-3.1-32.4-5.7-52.9-34.2-55.5h0Z"/>
  <path class="cls-15" d="M493.8,162.2l5.2-.5c28.4-2.6,48.1,23.8,47.9,46.7s-3.7,38.2.5,55.1,21.7,48.2,44.6,73.4c24.6,27.1,53.2,44.4,96.1,43,10.9-.6,26-.8,38.8,1.2,23.2,3.7,45,23.1,45,51.7v5.2c0,28.5-22.3,48.4-46.1,51-47.3,5-98.1-6.3-120.1-15.4-16.8-6.9-35.2-15.8-60.9-33.6-13.7-9.5-26.1-21.9-34.6-30.7-1.3-.9-11.9-13.9-11.9-14.3-7.5-10.8-18.4-27.6-24.9-42.3-8.5-18.9-22.4-63-25.6-81.9-3.2-18.9-2.6-33.4-.8-52.5,3.1-32.4,18.3-53.6,46.8-56.2h0Z"/>
  <g class="cls-17">
    <text class="cls-16" transform="translate(217.1 778.6)"><tspan x="0" y="0">ORU</tspan></text>
  </g>
  <circle class="cls-14" cx="1369.9" cy="239.2" r="77.7"/>
  <circle class="cls-7" cx="1756.7" cy="240.2" r="77.7"/>
  <path class="cls-2" d="M1570.1,166.9l-5.2-.5c-28.4-2.6-49.5,25-49.3,47.9s-2.6,38.6-6.8,55.5c-4.2,16.9-14,46.6-36.9,71.9-24.6,27.1-53.2,44.4-96.1,43-10.9-.6-26-.8-38.8,1.2-23.2,3.7-45,23.1-45,51.7v5.2c0,28.5,22.3,48.4,46.1,51,47.3,5,98.1-6.3,120.1-15.4,16.8-6.9,35.2-15.8,60.9-33.6,13.7-9.5,26.1-21.9,34.6-30.7,1.3-.9,11.9-13.9,11.9-14.3,7.5-10.8,18.4-27.6,24.9-42.3,8.5-18.9,14.7-68,18-86.9,3.2-18.9-2.4-29-4.2-48.1-3.1-32.4-5.7-52.9-34.2-55.5h0Z"/>
  <path class="cls-7" d="M1557.6,168.7l5.2-.5c28.4-2.6,48.1,23.8,47.9,46.7s-3.7,38.2.5,55.1,21.7,48.2,44.6,73.4c24.6,27.1,53.2,44.4,96.1,43,10.9-.6,26-.8,38.8,1.2,23.2,3.7,45,23.1,45,51.7v5.2c0,28.5-22.3,48.4-46.1,51-47.3,5-98.1-6.3-120.1-15.4-16.8-6.9-35.2-15.8-60.9-33.6-13.7-9.5-26.1-21.9-34.6-30.7-1.3-.9-11.9-13.9-11.9-14.3-7.5-10.8-18.4-27.6-24.9-42.3-8.5-18.9-22.4-63-25.6-81.9-3.2-18.9-2.6-33.4-.8-52.5,3.1-32.4,18.3-53.6,46.8-56.2h0Z"/>
  <g class="cls-17">
    <text class="cls-3" transform="translate(1284.9 779)"><tspan x="0" y="0">ORU</tspan></text>
  </g>
  <g class="cls-17">
    <text class="cls-4" transform="translate(1428.3 1278.2)"><tspan x="0" y="0">ORU</tspan></text>
  </g>
  <path class="cls-11" d="M1617.5,237.1c.1,10.8-1.2,24.8-3.7,40.4-2.5,15.6-18.3,68.9-24.2,82-6.6,14.6-25.1,41.8-26.5,43.5-.6-.8-19.3-29-25.9-43.7-8.5-18.9-21.4-55.9-25.6-81.9-4.2-26-1.1-48.4-.8-52.5,1.8-18.8,8.6-37.5,14.6-43.5s18.9-15.3,37.8-15.3,33.3,9.3,39.2,15.3c5.9,5.9,14.6,20.6,15.1,55.6h0Z"/>
  <g class="cls-18">
    <path class="cls-12" d="M1617.5,237.1c.1,10.8-1.2,24.8-3.7,40.4-2.5,15.6-18.3,68.9-24.2,82-6.6,14.6-25.1,41.8-26.5,43.5-.6-.8-19.3-29-25.9-43.7-8.5-18.9-21.4-55.9-25.6-81.9-4.2-26-1.1-48.4-.8-52.5,1.8-18.8,8.6-37.5,14.6-43.5s18.9-15.3,37.8-15.3,33.3,9.3,39.2,15.3c5.9,5.9,14.6,20.6,15.1,55.6h0Z"/>
  </g>
  <g class="cls-19">
    <path class="cls-6" d="M554.4,229.5c.1,10.8-1.2,24.8-3.7,40.4s-18.3,68.9-24.2,82c-6.6,14.6-25.1,41.8-26.5,43.5-.6-.8-19.3-29-25.9-43.7-8.5-18.9-21.4-55.9-25.6-81.9s-1.1-7.5-1.4-11.1c-2-21.1.3-37.9.6-41.4,1.8-18.8,8.6-37.5,14.6-43.5s18.9-15.3,37.8-15.3,33.3,9.3,39.2,15.3c5.9,5.9,14.6,20.6,15.1,55.6h0Z"/>
  </g>
  <path class="cls-10" d="M553.8,230.7c.1,10.8-1.2,24.8-3.7,40.4s-18.3,68.9-24.2,82c-6.6,14.6-25.1,41.8-26.5,43.5-.6-.8-19.3-29-25.9-43.7-8.5-18.9-21.4-55.9-25.6-81.9s-1.1-48.4-.8-52.5c1.8-18.8,8.6-37.5,14.6-43.5s18.9-15.3,37.8-15.3,33.3,9.3,39.2,15.3c5.9,5.9,14.6,20.6,15.1,55.6h0Z"/>
  <circle class="cls-14" cx="1102.8" cy="1115.6" r="50.1"/>
  <circle class="cls-7" cx="1352.5" cy="1116.2" r="50.1"/>
  <path class="cls-2" d="M1232.1,1068.9l-3.4-.3c-18.3-1.7-31.9,16.1-31.8,30.9s-1.7,24.9-4.4,35.8c-2.7,10.9-9,30.1-23.8,46.4-15.9,17.5-34.3,28.7-62,27.8-7-.4-16.8-.5-25,.8-15,2.4-29,14.9-29,33.4v3.4c0,18.4,14.4,31.2,29.8,32.9,30.5,3.2,63.3-4.1,77.5-9.9,10.8-4.5,22.7-10.2,39.3-21.7,8.8-6.1,16.8-14.1,22.3-19.8.8-.6,7.7-9,7.7-9.2,4.8-7,11.9-17.8,16.1-27.3,5.5-12.2,9.5-43.9,11.6-56.1,2.1-12.2-1.5-18.7-2.7-31-2-20.9-3.7-34.1-22.1-35.8h0Z"/>
  <path class="cls-7" d="M1224,1070.1l3.4-.3c18.3-1.7,31,15.4,30.9,30.1-.1,14.8-2.4,24.7.3,35.6,2.7,10.9,14,31.1,28.8,47.4,15.9,17.5,34.3,28.7,62,27.8,7-.4,16.8-.5,25,.8,15,2.4,29,14.9,29,33.4v3.4c0,18.4-14.4,31.2-29.8,32.9-30.5,3.2-63.3-4.1-77.5-9.9-10.8-4.5-22.7-10.2-39.3-21.7-8.8-6.1-16.8-14.1-22.3-19.8-.8-.6-7.7-9-7.7-9.2-4.8-7-11.9-17.8-16.1-27.3-5.5-12.2-14.5-40.7-16.5-52.9-2.1-12.2-1.7-21.6-.5-33.9,2-20.9,11.8-34.6,30.2-36.3h0Z"/>
  <path class="cls-11" d="M1262.7,1114.2c0,7-.8,16-2.4,26.1-1.6,10.1-11.8,44.5-15.6,52.9-4.3,9.4-16.2,27-17.1,28.1-.4-.5-12.5-18.7-16.7-28.2-5.5-12.2-13.8-36.1-16.5-52.9s-.7-31.2-.5-33.9c1.2-12.1,5.6-24.2,9.4-28.1s12.2-9.9,24.4-9.9,21.5,6,25.3,9.9c3.8,3.8,9.4,13.3,9.7,35.9h0Z"/>
  <g class="cls-20">
    <path class="cls-13" d="M1262.7,1114.2c0,7-.8,16-2.4,26.1-1.6,10.1-11.8,44.5-15.6,52.9-4.3,9.4-16.2,27-17.1,28.1-.4-.5-12.5-18.7-16.7-28.2-5.5-12.2-13.8-36.1-16.5-52.9s-.7-31.2-.5-33.9c1.2-12.1,5.6-24.2,9.4-28.1s12.2-9.9,24.4-9.9,21.5,6,25.3,9.9c3.8,3.8,9.4,13.3,9.7,35.9h0Z"/>
  </g>
  <text class="cls-5" transform="translate(229.2 859.5)"><tspan x="0" y="0">where growth begins</tspan></text>
  <text class="cls-1" transform="translate(1291.1 867.6)"><tspan x="0" y="0">where growth begins</tspan></text>
</svg>